<svg width="21" height="19" viewBox="0 0 21 19" fill="none" xmlns="http://www.w3.org/2000/svg">
<path fill-rule="evenodd" clip-rule="evenodd" d="M1.14 8.85134L8.68986 0.935184C9.04192 0.575027 9.61331 0.533193 10.0244 0.898807C10.3912 1.2244 10.4004 1.86104 10.0612 2.21572L4.00056 8.56029H19.3952C19.9169 8.56029 20.339 8.97683 20.339 9.4916C20.339 10.0064 19.9169 10.4229 19.3952 10.4229H4.00056L10.0612 16.7675C10.4004 17.1222 10.3764 17.7425 10.0244 18.0844C9.65202 18.4446 9.03636 18.4136 8.68986 18.048L1.14 10.1319C0.918812 9.91723 0.87826 9.70987 0.874575 9.49159C0.874575 9.27698 1.00729 8.98959 1.14 8.85134Z" fill="url(#paint0_linear_1_166)"/>
<defs>
<linearGradient id="paint0_linear_1_166" x1="20.339" y1="2.17955" x2="2.40314" y2="18.4849" gradientUnits="userSpaceOnUse">
<stop stop-color="#665DCD"/>
<stop offset="0.447624" stop-color="#5FA4E6"/>
<stop offset="1" stop-color="#D2AB67"/>
</linearGradient>
</defs>
</svg>
